<svg width="221" height="64" viewBox="0 0 221 64" fill="none" xmlns="http://www.w3.org/2000/svg">
<path d="M29.233 20.3989L27.9857 12.3794L26.7384 20.3989C26.1148 24.3697 22.9966 27.484 19.021 28.1069L10.9917 29.3526L19.021 30.5984C22.9966 31.2212 26.1148 34.3356 26.7384 38.3064L27.9857 46.3259L29.233 38.3064C29.8566 34.3356 32.9748 31.2212 36.9504 30.5984L44.9797 29.3526L36.9504 28.1069C32.9748 27.484 29.8566 24.3697 29.233 20.3989Z" fill="url(#paint0_linear_180_1173)"/>
<path d="M39.1334 20.1654L39.6011 22.9683L40.0688 20.1654C40.3027 18.7639 41.394 17.6739 42.7972 17.4403L45.6036 16.9732L42.7972 16.506C41.394 16.2724 40.3027 15.1824 40.0688 13.7809L39.6011 10.978L39.1334 13.7809C38.8995 15.1824 37.8082 16.2724 36.405 16.506L33.5986 16.9732L36.405 17.4403C37.8082 17.6739 38.8995 18.7639 39.1334 20.1654Z" fill="url(#paint1_linear_180_1173)"/>
<path d="M168.927 48.9731C165.964 49.3624 165.731 49.596 165.341 52.5546C164.951 49.596 164.717 49.3624 161.755 48.9731C164.717 48.5838 164.951 48.3502 165.341 45.3916C165.731 48.3502 165.964 48.5838 168.927 48.9731Z" fill="url(#paint2_linear_180_1173)"/>
<path d="M133.302 41.6542L131.587 41.0314C130.262 40.5642 129.56 39.9413 129.56 39.1627C129.56 38.3842 129.716 38.2284 130.106 37.8391C130.495 37.372 131.119 37.1384 131.821 37.1384C132.522 37.1384 133.146 37.372 133.614 37.8391C133.925 38.1506 134.237 38.6177 134.705 39.2406L137.745 37.2941C137.355 36.5934 136.966 36.1262 136.576 35.6591C135.329 34.2576 133.769 33.6348 131.899 33.6348C130.028 33.6348 128.78 34.1798 127.611 35.1919C126.442 36.2041 125.818 37.5277 125.818 39.1627C125.818 41.4985 127.221 43.1335 130.028 44.2236L131.665 44.8464C132.834 45.3136 133.536 45.7029 133.847 46.0922C134.081 46.3258 134.159 46.6372 134.159 47.0265C134.159 47.6494 133.925 48.1944 133.536 48.6615C132.99 49.2065 132.366 49.518 131.509 49.518C130.651 49.518 129.95 49.1287 129.404 48.428C129.17 48.1165 128.936 47.4158 128.624 46.3258L125.039 47.2601C125.506 49.4401 126.442 50.9194 127.689 51.7759C128.78 52.5545 130.028 52.9438 131.431 52.9438C132.834 52.9438 134.627 52.3988 135.874 51.3087C137.199 50.1409 137.901 48.6615 137.901 46.8708C137.901 45.08 137.667 45.08 137.199 44.3014C136.498 43.2114 135.173 42.2771 133.302 41.5764V41.6542Z" fill="#FDFDFE"/>
<path d="M151.309 34.8806C150.374 34.3356 148.97 34.1021 147.255 34.1021H142.812V52.6325H146.554V45.9366H147.255C148.581 45.9366 149.594 45.7809 150.452 45.4694C151.309 45.158 152.011 44.6909 152.556 43.9901C153.57 42.9001 154.037 41.5765 154.037 39.9415C154.037 38.3064 153.804 37.7614 153.258 36.8271C152.79 35.9707 152.089 35.3478 151.309 34.8806ZM149.906 41.8101C149.516 42.2772 148.737 42.5108 147.567 42.5108H146.632V37.45H147.567C149.594 37.45 150.529 38.2286 150.529 39.9415C150.529 41.6544 150.296 41.2651 149.906 41.7322V41.8101Z" fill="#FDFDFE"/>
<path d="M189.507 48.9732C188.805 49.3625 187.948 49.5182 187.012 49.5182C185.453 49.5182 184.128 48.9732 182.959 47.961C181.633 46.7931 180.932 45.1581 180.932 43.2895C180.932 41.4209 181.477 40.253 182.491 39.0073C183.66 37.6837 185.141 37.0608 186.934 37.0608C188.727 37.0608 189.195 37.3722 190.13 38.0729C190.598 38.4622 191.222 38.9294 191.767 39.6301L194.418 37.1386C193.248 35.8929 192.079 34.9586 190.91 34.4136C189.741 33.8686 188.415 33.5571 187.012 33.5571C185.609 33.5571 183.582 34.0243 182.101 34.8807C180.62 35.7372 179.373 36.9051 178.515 38.4622C177.658 39.9416 177.19 41.5766 177.19 43.2895C177.19 45.0024 177.658 46.6374 178.515 48.1167C179.373 49.5961 180.542 50.7639 181.945 51.6204C183.504 52.5547 185.219 53.0219 187.012 53.0219C188.805 53.0219 190.52 52.5547 192.079 51.5425C192.859 51.0754 193.638 50.3747 194.574 49.4403L191.923 46.9489C190.988 47.8832 190.208 48.5839 189.507 48.9732Z" fill="#FDFDFE"/>
<path d="M163.158 34.0244L156.22 52.5548H160.118L160.897 50.3748V50.2969L161.677 48.2726L162.924 44.8468L165.341 37.9952L167.602 44.2239V44.3018L167.757 44.8468L169.005 48.2726L170.564 52.5548H174.461L167.524 34.0244H163.158Z" fill="#FDFDFE"/>
<path d="M203.538 37.4502H209.697V34.0244H199.017V37.4502H202.759H203.538Z" fill="#FDFDFE"/>
<path d="M203.538 44.9243H208.917V41.4985H203.538H202.759H199.017V44.9243H203.538Z" fill="#FDFDFE"/>
<path d="M203.538 49.1289H202.759H199.017V52.5547H209.931V49.1289H203.538Z" fill="#FDFDFE"/>
<path d="M45.9149 49.7518C45.0575 50.219 44.122 50.4526 43.0306 50.4526C41.2377 50.4526 39.6786 49.8297 38.4313 48.6618C36.8723 47.2603 36.0927 45.4696 36.0927 43.3674C36.0927 41.2652 36.7164 39.8637 37.8857 38.5401C39.2109 37.0608 41.0038 36.2822 43.0306 36.2822C45.0575 36.2822 45.6031 36.6715 46.6945 37.4501C47.0843 37.6837 47.474 38.073 47.8638 38.4623L49.189 37.2165C48.2536 36.3601 47.3961 35.7372 46.5386 35.3479C45.5252 34.8808 44.2779 34.5693 43.0306 34.5693C41.7834 34.5693 39.9125 34.9586 38.5093 35.7372C37.1061 36.5158 36.0148 37.6058 35.2352 39.0073C34.4557 40.4088 34.0659 41.8102 34.0659 43.3674C34.0659 44.9246 34.4557 46.4039 35.2352 47.7275C36.0148 49.0511 37.0282 50.1411 38.3534 50.8418C39.7566 51.6983 41.3157 52.0876 43.0306 52.0876C44.7456 52.0876 46.2268 51.6204 47.6299 50.764C48.1756 50.4525 48.7213 49.9854 49.267 49.4404L47.9418 48.1946C47.2402 48.8954 46.5386 49.4404 45.9149 49.7518Z" fill="#FDFDFE"/>
<path d="M57.8419 34.9585H55.8931V51.6982H64.546V49.9853H57.8419V34.9585Z" fill="#FDFDFE"/>
<path d="M93.5448 34.9585H90.5825L84.3462 51.6982H86.373L87.9321 47.4159H96.507L98.0661 51.6982H100.093L93.8566 34.9585H93.7007H93.5448ZM88.3998 45.703L91.6739 36.5935H92.5314L95.8055 45.703H88.3998Z" fill="#FDFDFE"/>
<path d="M118.101 48.7395L107.733 34.9585H105.862V51.6982H107.811V37.9171L118.257 51.6982H120.049V34.9585H118.101V48.7395Z" fill="#FDFDFE"/>
<path d="M72.1857 43.9901H78.344V42.3551H72.1857V36.5935H79.1236V34.9585H70.2368V51.6982H79.3575V49.9853H72.1857V43.9901Z" fill="#FDFDFE"/>
<defs>
<linearGradient id="paint0_linear_180_1173" x1="11.0697" y1="29.3526" x2="44.9018" y2="29.3526" gradientUnits="userSpaceOnUse">
<stop offset="0.2" stop-color="#E6D884"/>
<stop offset="0.4" stop-color="#D5B35E"/>
<stop offset="0.6" stop-color="#C89640"/>
<stop offset="0.9" stop-color="#BF842D"/>
<stop offset="1" stop-color="#BD7E27"/>
</linearGradient>
<linearGradient id="paint1_linear_180_1173" x1="33.5986" y1="17.051" x2="45.6036" y2="17.051" gradientUnits="userSpaceOnUse">
<stop offset="0.2" stop-color="#E6D884"/>
<stop offset="0.4" stop-color="#D5B35E"/>
<stop offset="0.6" stop-color="#C89640"/>
<stop offset="0.9" stop-color="#BF842D"/>
<stop offset="1" stop-color="#BD7E27"/>
</linearGradient>
<linearGradient id="paint2_linear_180_1173" x1="161.755" y1="48.9731" x2="168.927" y2="48.9731" gradientUnits="userSpaceOnUse">
<stop offset="0.2" stop-color="#E6D884"/>
<stop offset="0.4" stop-color="#D5B35E"/>
<stop offset="0.6" stop-color="#C89640"/>
<stop offset="0.9" stop-color="#BF842D"/>
<stop offset="1" stop-color="#BD7E27"/>
</linearGradient>
</defs>
</svg>
