<svg width="150" height="32" viewBox="0 0 150 32" fill="none" xmlns="http://www.w3.org/2000/svg">
<path d="M13.7016 7.06562L12.7647 1.05103L11.8279 7.06562C11.3594 10.0437 9.01728 12.3795 6.03104 12.8466L0 13.781L6.03104 14.7153C9.01728 15.1824 11.3594 17.5182 11.8279 20.4963L12.7647 26.5109L13.7016 20.4963C14.17 17.5182 16.5122 15.1824 19.4984 14.7153L25.5295 13.781L19.4984 12.8466C16.5122 12.3795 14.17 10.0437 13.7016 7.06562Z" fill="url(#paint0_linear_289_161)"/>
<path d="M21.1378 6.89051L21.4891 8.9927L21.8404 6.89051C22.0161 5.83942 22.8358 5.0219 23.8898 4.84672L25.9978 4.49635L23.8898 4.14599C22.8358 3.9708 22.0161 3.15329 21.8404 2.10219L21.4891 0L21.1378 2.10219C20.9621 3.15329 20.1424 3.9708 19.0884 4.14599L16.9805 4.49635L19.0884 4.84672C20.1424 5.0219 20.9621 5.83942 21.1378 6.89051Z" fill="url(#paint1_linear_289_161)"/>
<path d="M118.63 28.4962C116.405 28.7882 116.229 28.9633 115.937 31.1823C115.644 28.9633 115.468 28.7882 113.243 28.4962C115.468 28.2042 115.644 28.029 115.937 25.8101C116.229 28.029 116.405 28.2042 118.63 28.4962Z" fill="url(#paint2_linear_289_161)"/>
<path d="M91.8708 23.0073L90.5826 22.5401C89.5872 22.1898 89.0602 21.7226 89.0602 21.1387C89.0602 20.5547 89.1773 20.4379 89.4701 20.146C89.7628 19.7956 90.2313 19.6204 90.7582 19.6204C91.2852 19.6204 91.7537 19.7956 92.105 20.146C92.3392 20.3795 92.5734 20.7299 92.9247 21.1971L95.2083 19.7372C94.9156 19.2117 94.6228 18.8613 94.33 18.5109C93.3932 17.4598 92.2221 16.9927 90.8168 16.9927C89.4115 16.9927 88.4746 17.4014 87.5963 18.1606C86.718 18.9197 86.2496 19.9124 86.2496 21.1387C86.2496 22.8905 87.3036 24.1168 89.4115 24.9343L90.6411 25.4014C91.5194 25.7518 92.0464 26.0438 92.2806 26.3357C92.4563 26.5109 92.5149 26.7445 92.5149 27.0365C92.5149 27.5036 92.3392 27.9124 92.0464 28.2627C91.6366 28.6715 91.1681 28.9051 90.524 28.9051C89.8799 28.9051 89.353 28.6131 88.9431 28.0876C88.7674 27.854 88.5918 27.3284 88.3575 26.5109L85.6641 27.2117C86.0154 28.8467 86.718 29.9562 87.6549 30.5985C88.4746 31.1825 89.4115 31.4744 90.4655 31.4744C91.5194 31.4744 92.8662 31.0657 93.803 30.2482C94.7985 29.3722 95.3254 28.2627 95.3254 26.9197C95.3254 25.5766 95.1498 25.5766 94.7985 24.9927C94.2715 24.1752 93.2761 23.4744 91.8708 22.9489V23.0073Z" fill="black"/>
<path d="M105.397 17.927C104.694 17.5182 103.64 17.343 102.352 17.343H99.0146V31.2408H101.825V26.2189H102.352C103.348 26.2189 104.109 26.1021 104.753 25.8686C105.397 25.635 105.924 25.2846 106.334 24.7591C107.095 23.9416 107.446 22.9489 107.446 21.7226C107.446 20.4963 107.271 20.0875 106.861 19.3868C106.51 18.7445 105.983 18.2773 105.397 17.927ZM104.343 23.124C104.05 23.4744 103.465 23.6496 102.586 23.6496H101.884V19.854H102.586C104.109 19.854 104.811 20.4379 104.811 21.7226C104.811 23.0073 104.636 22.7153 104.343 23.0656V23.124Z" fill="black"/>
<path d="M134.088 28.4964C133.561 28.7883 132.917 28.9051 132.215 28.9051C131.044 28.9051 130.048 28.4964 129.17 27.7372C128.174 26.8613 127.647 25.6351 127.647 24.2336C127.647 22.8321 128.057 21.9562 128.819 21.0219C129.697 20.0292 130.809 19.5621 132.156 19.5621C133.503 19.5621 133.854 19.7956 134.557 20.3212C134.908 20.6132 135.377 20.9635 135.786 21.4891L137.777 19.6205C136.899 18.6862 136.021 17.9854 135.142 17.5767C134.264 17.1679 133.269 16.9343 132.215 16.9343C131.161 16.9343 129.638 17.2847 128.526 17.927C127.413 18.5694 126.476 19.4453 125.832 20.6132C125.188 21.7226 124.837 22.9489 124.837 24.2336C124.837 25.5183 125.188 26.7445 125.832 27.854C126.476 28.9635 127.355 29.8394 128.409 30.4818C129.58 31.1825 130.868 31.5329 132.215 31.5329C133.561 31.5329 134.85 31.1825 136.021 30.4234C136.606 30.073 137.192 29.5475 137.894 28.8467L135.904 26.9781C135.201 27.6789 134.615 28.2044 134.088 28.4964Z" fill="black"/>
<path d="M114.297 17.2847L109.086 31.1825H112.014L112.599 29.5474V29.489L113.185 27.9708L114.122 25.4015L115.937 20.2628L117.635 24.9343V24.9927L117.752 25.4015L118.689 27.9708L119.86 31.1825H122.788L117.576 17.2847H114.297Z" fill="black"/>
<path d="M144.628 19.854H149.254V17.2847H141.232V19.854H144.043H144.628Z" fill="black"/>
<path d="M144.628 25.46H148.668V22.8906H144.628H144.043H141.232V25.46H144.628Z" fill="black"/>
<path d="M144.628 28.613H144.043H141.232V31.1824H149.429V28.613H144.628Z" fill="black"/>
<path d="M26.2322 29.0802C25.5881 29.4306 24.8855 29.6058 24.0657 29.6058C22.719 29.6058 21.5479 29.1386 20.611 28.2627C19.44 27.2116 18.8544 25.8685 18.8544 24.2919C18.8544 22.7153 19.3229 21.6642 20.2012 20.6715C21.1966 19.562 22.5433 18.978 24.0657 18.978C25.5881 18.978 25.998 19.27 26.8177 19.8539C27.1105 20.0291 27.4033 20.3211 27.6961 20.6131L28.6915 19.6788C27.9888 19.0364 27.3447 18.5693 26.7006 18.2773C25.9394 17.9269 25.0026 17.6934 24.0657 17.6934C23.1289 17.6934 21.7236 17.9853 20.6696 18.5693C19.6156 19.1532 18.7959 19.9707 18.2103 21.0218C17.6248 22.0729 17.332 23.124 17.332 24.2919C17.332 25.4598 17.6248 26.5693 18.2103 27.562C18.7959 28.5547 19.5571 29.3722 20.5525 29.8977C21.6065 30.5401 22.7775 30.832 24.0657 30.832C25.3539 30.832 26.4664 30.4817 27.5204 29.8393C27.9303 29.6058 28.3401 29.2554 28.75 28.8466L27.7546 27.9123C27.2276 28.4379 26.7006 28.8466 26.2322 29.0802Z" fill="black"/>
<path d="M35.1909 17.9854H33.7271V30.5401H40.2265V29.2554H35.1909V17.9854Z" fill="black"/>
<path d="M62.0085 17.9854H59.7834L55.0991 30.5401H56.6215L57.7926 27.3284H64.2335L65.4046 30.5401H66.927L62.2427 17.9854H62.1256H62.0085ZM58.1439 26.0437L60.6032 19.2116H61.2473L63.7065 26.0437H58.1439Z" fill="black"/>
<path d="M80.4532 28.3211L72.6655 17.9854H71.2603V30.5401H72.7241V20.2043L80.5703 30.5401H81.917V17.9854H80.4532V28.3211Z" fill="black"/>
<path d="M45.9648 24.7591H50.5906V23.5328H45.9648V19.2116H51.1761V17.9854H44.501V30.5401H51.3518V29.2554H45.9648V24.7591Z" fill="black"/>
<defs>
<linearGradient id="paint0_linear_289_161" x1="0.0585538" y1="13.781" x2="25.4709" y2="13.781" gradientUnits="userSpaceOnUse">
<stop offset="0.2" stop-color="#E6D884"/>
<stop offset="0.4" stop-color="#D5B35E"/>
<stop offset="0.6" stop-color="#C89640"/>
<stop offset="0.9" stop-color="#BF842D"/>
<stop offset="1" stop-color="#BD7E27"/>
</linearGradient>
<linearGradient id="paint1_linear_289_161" x1="16.9805" y1="4.55474" x2="25.9978" y2="4.55474" gradientUnits="userSpaceOnUse">
<stop offset="0.2" stop-color="#E6D884"/>
<stop offset="0.4" stop-color="#D5B35E"/>
<stop offset="0.6" stop-color="#C89640"/>
<stop offset="0.9" stop-color="#BF842D"/>
<stop offset="1" stop-color="#BD7E27"/>
</linearGradient>
<linearGradient id="paint2_linear_289_161" x1="113.243" y1="28.4962" x2="118.63" y2="28.4962" gradientUnits="userSpaceOnUse">
<stop offset="0.2" stop-color="#E6D884"/>
<stop offset="0.4" stop-color="#D5B35E"/>
<stop offset="0.6" stop-color="#C89640"/>
<stop offset="0.9" stop-color="#BF842D"/>
<stop offset="1" stop-color="#BD7E27"/>
</linearGradient>
</defs>
</svg>
