<svg width="40" height="41" viewBox="0 0 40 41" fill="none" xmlns="http://www.w3.org/2000/svg">
<path d="M8.33333 15.5004V28.8337M15.8333 15.5004V28.8337M24.1667 15.5004V28.8337M31.6667 15.5004V28.8337M5 31.5004L5 32.8337C5 33.7671 5 34.2338 5.18166 34.5903C5.34144 34.9039 5.59641 35.1589 5.91002 35.3187C6.26654 35.5004 6.73325 35.5004 7.66667 35.5004H32.3333C33.2668 35.5004 33.7335 35.5004 34.09 35.3187C34.4036 35.1589 34.6586 34.9039 34.8183 34.5903C35 34.2338 35 33.7671 35 32.8337V31.5004C35 30.5669 35 30.1002 34.8183 29.7437C34.6586 29.4301 34.4036 29.1751 34.09 29.0153C33.7335 28.8337 33.2668 28.8337 32.3333 28.8337H7.66667C6.73325 28.8337 6.26654 28.8337 5.91002 29.0153C5.59641 29.1751 5.34144 29.4301 5.18166 29.7437C5 30.1002 5 30.5669 5 31.5004ZM19.4215 5.62891L7.08819 8.36965C6.34308 8.53523 5.97053 8.61802 5.69244 8.81836C5.44715 8.99508 5.25455 9.23518 5.13525 9.51297C5 9.8279 5 10.2095 5 10.9728L5 12.8337C5 13.7671 5 14.2338 5.18166 14.5903C5.34144 14.9039 5.59641 15.1589 5.91002 15.3187C6.26654 15.5004 6.73325 15.5004 7.66667 15.5004H32.3333C33.2668 15.5004 33.7335 15.5004 34.09 15.3187C34.4036 15.1589 34.6586 14.9039 34.8183 14.5903C35 14.2338 35 13.7671 35 12.8337V10.9728C35 10.2095 35 9.8279 34.8647 9.51297C34.7455 9.23519 34.5528 8.99508 34.3076 8.81837C34.0295 8.61802 33.6569 8.53523 32.9118 8.36965L20.5785 5.62891C20.3626 5.58094 20.2547 5.55695 20.1456 5.54739C20.0487 5.53889 19.9513 5.53889 19.8544 5.54739C19.7453 5.55695 19.6374 5.58094 19.4215 5.62891Z" stroke="#FFA101" stroke-width="3" stroke-linecap="round" stroke-linejoin="round"/>
</svg>
