<svg width="40" height="41" viewBox="0 0 40 41" fill="none" xmlns="http://www.w3.org/2000/svg">
<path d="M36.6663 17.1663H3.33301M18.333 23.833H9.99967M3.33301 14.1663L3.33301 26.833C3.33301 28.6998 3.33301 29.6333 3.69632 30.3463C4.0159 30.9735 4.52583 31.4834 5.15304 31.803C5.86608 32.1663 6.7995 32.1663 8.66634 32.1663L31.333 32.1663C33.1999 32.1663 34.1333 32.1663 34.8463 31.803C35.4735 31.4835 35.9835 30.9735 36.303 30.3463C36.6663 29.6333 36.6663 28.6999 36.6663 26.833V14.1663C36.6663 12.2995 36.6663 11.3661 36.303 10.653C35.9835 10.0258 35.4735 9.5159 34.8463 9.19632C34.1333 8.83301 33.1999 8.83301 31.333 8.83301L8.66634 8.83301C6.7995 8.83301 5.86608 8.83301 5.15304 9.19632C4.52583 9.5159 4.0159 10.0258 3.69632 10.653C3.33301 11.3661 3.33301 12.2995 3.33301 14.1663Z" stroke="#FFA101" stroke-width="3" stroke-linecap="round" stroke-linejoin="round"/>
</svg>
