<svg width="32" height="32" viewBox="0 0 32 32" fill="none" xmlns="http://www.w3.org/2000/svg">
<path d="M5.3335 14.4722C5.3335 13.2694 5.3335 12.668 5.63219 12.1847C5.93089 11.7014 6.46881 11.4324 7.54464 10.8945L14.2113 7.56118C15.0891 7.12227 15.528 6.90282 16.0002 6.90282C16.4723 6.90282 16.9112 7.12227 17.789 7.56118L24.4557 10.8945C25.5315 11.4324 26.0694 11.7014 26.3681 12.1847C26.6668 12.668 26.6668 13.2694 26.6668 14.4722V21.3334C26.6668 23.219 26.6668 24.1618 26.081 24.7476C25.4953 25.3334 24.5524 25.3334 22.6668 25.3334H9.3335C7.44788 25.3334 6.50507 25.3334 5.91928 24.7476C5.3335 24.1618 5.3335 23.219 5.3335 21.3334V14.4722Z" fill="#FFD149"/>
<path d="M5.3335 23.3333V13.576C5.3335 13.4644 5.45084 13.3919 5.55058 13.4418L14.6585 17.9958C15.5031 18.4181 16.4972 18.4181 17.3418 17.9958L26.4497 13.4418C26.5495 13.3919 26.6668 13.4644 26.6668 13.576V23.3333C26.6668 24.4378 25.7714 25.3333 24.6668 25.3333H7.3335C6.22893 25.3333 5.3335 24.4378 5.3335 23.3333Z" fill="#FFA000"/>
</svg>
