<svg width="32" height="32" viewBox="0 0 32 32" fill="none" xmlns="http://www.w3.org/2000/svg">
<path d="M23.775 18.6215L27.6129 22.6263C28.129 23.1648 28.129 24.038 27.6129 24.5765C24.8227 27.4881 20.4053 27.8157 17.2485 25.3451L14.9652 23.5582C12.4383 21.5806 10.1936 19.2383 8.2984 16.6015L6.58594 14.2189C4.21833 10.9249 4.53227 6.31546 7.32251 3.4039C7.83861 2.86537 8.67536 2.86537 9.19146 3.4039L13.0294 7.40874C13.5954 7.99934 13.5954 8.95689 13.0294 9.54749L11.5495 11.0918C11.3143 11.3372 11.256 11.7122 11.4047 12.0226C13.1246 15.6119 15.9136 18.5222 19.3533 20.3168C19.6508 20.472 20.0102 20.4112 20.2454 20.1658L21.7253 18.6215C22.2913 18.0309 23.209 18.0309 23.775 18.6215Z" fill="#FFD149"/>
<path d="M27.6129 24.5765C28.129 24.038 28.129 23.1648 27.6129 22.6263L23.775 18.6215C23.7749 18.6214 23.7751 18.6216 23.775 18.6215C23.209 18.0309 22.2913 18.0309 21.7253 18.6215L20.5762 19.8206L26.2355 25.7259C26.7256 25.4032 27.1881 25.0198 27.6129 24.5765Z" fill="#FFA000"/>
<path d="M6.22097 4.84124L11.8803 10.7466L13.0294 9.54749C13.5954 8.95689 13.5954 7.99934 13.0294 7.40874L9.19146 3.4039C8.67536 2.86537 7.83861 2.86537 7.32251 3.4039C6.89768 3.8472 6.53026 4.32986 6.22097 4.84124Z" fill="#FFA000"/>
</svg>
